<svg id="visual" viewBox="0 0 540 960" width="540" height="960" xmlns="http://www.w3.org/2000/svg" xmlns:xlink="http://www.w3.org/1999/xlink" version="1.1"><g><g transform="translate(498 830)"><path d="M96.8 -33.1C107.7 2.3 86.7 46.4 52.5 70.9C18.3 95.4 -29.1 100.4 -59.2 79.1C-89.2 57.8 -101.9 10.3 -89.1 -27.6C-76.4 -65.5 -38.2 -93.7 2.4 -94.5C42.9 -95.2 85.8 -68.5 96.8 -33.1Z" stroke="#6dcdb8" fill="none" stroke-width="20"></path></g><g transform="translate(124 591)"><path d="M68.5 -22.7C77.8 6.3 66.8 41.5 41.2 61.1C15.6 80.7 -24.4 84.7 -48 67.3C-71.5 49.9 -78.6 11 -67.9 -20C-57.1 -51 -28.6 -74.2 0.5 -74.4C29.6 -74.5 59.2 -51.7 68.5 -22.7Z" stroke="#6dcdb8" fill="none" stroke-width="20"></path></g><g transform="translate(480 45)"><path d="M74.5 -21.6C84.4 6.2 71.9 43.9 45.8 62.8C19.8 81.6 -19.8 81.6 -42.4 63.8C-65.1 46.1 -70.9 10.6 -61 -17.2C-51.1 -45.1 -25.5 -65.3 3.4 -66.4C32.3 -67.5 64.6 -49.5 74.5 -21.6Z" stroke="#6dcdb8" fill="none" stroke-width="20"></path></g></g></svg>